# xmcd
#
# Track frame offsets:
#	150
#	12749
#	19264
#	29449
#	39409
#	50617
#	61897
#	72004
#	83522
#	97364
#	106181
#	119761
#	129377
#	139840
#	153294
#	167447
#	180508
#	194458
#	207651
#	218054
#
# Disc length: 3024 seconds
#
# Revision: 1
# Processed by: cddbd v1.5.2PL0 Copyright (c) Steve Scherf et al.
# Submitted via: EasyCDDAExtractor 6.5.0.1
#
DISCID=1e0bce14
DTITLE=Bill Harell and Don Reno - 20 Bluegrass Greats
DYEAR=2009
DGENRE=Country
TTITLE0=A Heart Never Knows
TTITLE1=Banjo Whiz
TTITLE2=Love Is A Stranger
TTITLE3=Top Hat Ramble
TTITLE4=One Track Mind
TTITLE5=Tragic Highway
TTITLE6=Eatin' Out Of Her Hand
TTITLE7=I'll Never See You Anymore
TTITLE8=Mister Bottle
TTITLE9=Grey Eagle
TTITLE10=I'm Just A Little Old Fashioned
TTITLE11=All The Way To Reno
TTITLE12=Where Is Jones
TTITLE13=Big Train
TTITLE14=Another Daddy Gone Wrong
TTITLE15=You Give Me Your Love, I'll Give You Mine
TTITLE16=Let Me Look At Myself
TTITLE17=Just A Phone Call Will Do
TTITLE18=Mack's Hoedown
TTITLE19=Peacock rag
EXTD=
EXTT0=
EXTT1=
EXTT2=
EXTT3=
EXTT4=
EXTT5=
EXTT6=
EXTT7=
EXTT8=
EXTT9=
EXTT10=
EXTT11=
EXTT12=
EXTT13=
EXTT14=
EXTT15=
EXTT16=
EXTT17=
EXTT18=
EXTT19=
PLAYORDER=
